<svg fill="none" height="571" viewBox="0 0 600 571" width="600" xmlns="http://www.w3.org/2000/svg">
	<g clip-path="url(#clip0_2030_16124)">
		<path d="M192.993 40.435C341.724 -16.2757 448.024 46.2175 535.62 170.801C635.177 287.327 568.846 427.645 424.624 381.333C280.401 335.021 170.505 566.548 77.0954 480.993C-16.3141 395.438 44.2625 97.1457 192.993 40.435Z" fill="#F0F5FF" />
		<g clip-path="url(#clip1_2030_16124)">
			<path d="M372.527 517.995C372.527 498.873 367.395 492.498 352 492.498C367.395 492.498 372.527 486.122 372.527 467C372.527 486.122 377.659 492.498 393.054 492.498C377.659 492.498 372.527 498.873 372.527 517.995Z" fill="#393A4A" />
			<path d="M148.29 432.99H146.764C146.764 414.27 141.963 408.26 127 408.26V406.735C141.963 406.735 146.764 400.725 146.764 382H148.29C148.29 400.725 153.091 406.735 168.054 406.735V408.26C153.091 408.26 148.29 414.27 148.29 432.99ZM134.97 407.498C142.217 409.145 146.032 413.609 147.527 422.262C149.022 413.609 152.837 409.145 160.084 407.498C152.837 405.85 149.022 401.386 147.527 392.733C146.032 401.386 142.217 405.85 134.97 407.498Z" fill="#393A4A" />
			<path d="M61.5271 76.9953C61.5271 57.8733 56.3953 51.4977 41 51.4977C56.3953 51.4977 61.5271 45.122 61.5271 26C61.5271 45.122 66.6589 51.4977 82.0542 51.4977C66.6589 51.4977 61.5271 57.8733 61.5271 76.9953Z" fill="#393A4A" />
			<path d="M524.783 471.066C527.545 471.066 529.785 468.828 529.785 466.066C529.785 463.305 527.545 461.066 524.783 461.066C522.021 461.066 519.781 463.305 519.781 466.066C519.781 468.828 522.021 471.066 524.783 471.066Z" fill="#393A4A" />
			<path d="M579.301 390.448C581.144 390.448 582.638 388.955 582.638 387.113C582.638 385.271 581.144 383.777 579.301 383.777C577.459 383.777 575.965 385.271 575.965 387.113C575.965 388.955 577.459 390.448 579.301 390.448Z" fill="#A7A9BC" />
			<path d="M469.415 426.167C471.257 426.167 472.751 424.673 472.751 422.831C472.751 420.989 471.257 419.496 469.415 419.496C467.572 419.496 466.078 420.989 466.078 422.831C466.078 424.673 467.572 426.167 469.415 426.167Z" fill="#A7A9BC" />
			<path d="M415.012 118.971C416.855 118.971 418.349 117.478 418.349 115.636C418.349 113.794 416.855 112.301 415.012 112.301C413.17 112.301 411.676 113.794 411.676 115.636C411.676 117.478 413.17 118.971 415.012 118.971Z" fill="#A7A9BC" />
			<path d="M376.332 16.6706C378.175 16.6706 379.669 15.1773 379.669 13.3353C379.669 11.4933 378.175 10 376.332 10C374.49 10 372.996 11.4933 372.996 13.3353C372.996 15.1773 374.49 16.6706 376.332 16.6706Z" fill="#A7A9BC" />
			<path d="M167.336 29.6706C169.179 29.6706 170.673 28.1773 170.673 26.3353C170.673 24.4933 169.179 23 167.336 23C165.494 23 164 24.4933 164 26.3353C164 28.1773 165.494 29.6706 167.336 29.6706Z" fill="#A7A9BC" />
			<path d="M34.813 127.663C36.6556 127.663 38.1494 126.17 38.1494 124.327C38.1494 122.485 36.6556 120.992 34.813 120.992C32.9703 120.992 31.4766 122.485 31.4766 124.327C31.4766 126.17 32.9703 127.663 34.813 127.663Z" fill="#A7A9BC" />
			<path d="M323.399 347.807C325.242 347.807 326.735 346.314 326.735 344.472C326.735 342.63 325.242 341.137 323.399 341.137C321.556 341.137 320.062 342.63 320.062 344.472C320.062 346.314 321.556 347.807 323.399 347.807Z" fill="#A7A9BC" />
			<path d="M53.3364 478.671C55.1791 478.671 56.6728 477.177 56.6728 475.335C56.6728 473.493 55.1791 472 53.3364 472C51.4938 472 50 473.493 50 475.335C50 477.177 51.4938 478.671 53.3364 478.671Z" fill="#A7A9BC" />
			<path d="M166.549 533C169.311 533 171.55 530.761 171.55 528C171.55 525.239 169.311 523 166.549 523C163.786 523 161.547 525.239 161.547 528C161.547 530.761 163.786 533 166.549 533Z" fill="#393A4A" />
			<path d="M439.65 363.855C442.412 363.855 444.652 361.617 444.652 358.855C444.652 356.094 442.412 353.855 439.65 353.855C436.888 353.855 434.648 356.094 434.648 358.855C434.648 361.617 436.888 363.855 439.65 363.855Z" fill="#393A4A" />
			<path d="M147.888 108.711C150.651 108.711 152.89 106.472 152.89 103.711C152.89 100.95 150.651 98.7109 147.888 98.7109C145.126 98.7109 142.887 100.95 142.887 103.711C142.887 106.472 145.126 108.711 147.888 108.711Z" fill="#393A4A" />
			<path d="M268.002 59C270.764 59 273.003 56.7614 273.003 54C273.003 51.2386 270.764 49 268.002 49C265.239 49 263 51.2386 263 54C263 56.7614 265.239 59 268.002 59Z" fill="#393A4A" />
			<path d="M483.353 69.4492C486.116 69.4492 488.355 67.2106 488.355 64.4492C488.355 61.6878 486.116 59.4492 483.353 59.4492C480.591 59.4492 478.352 61.6878 478.352 64.4492C478.352 67.2106 480.591 69.4492 483.353 69.4492Z" fill="#393A4A" />
			<path d="M559.735 140.991H558.21C558.21 122.271 553.408 116.256 538.445 116.256V114.731C553.408 114.731 558.21 108.721 558.21 89.9961H559.735C559.735 108.716 564.536 114.731 579.499 114.731V116.256C564.536 116.256 559.735 122.266 559.735 140.991ZM546.415 115.499C553.663 117.146 557.477 121.61 558.972 130.264C560.468 121.61 564.282 117.146 571.53 115.499C564.282 113.852 560.468 109.388 558.972 100.734C557.477 109.388 553.663 113.852 546.415 115.499Z" fill="#393A4A" />
			<path d="M88.0472 356.09C91.3871 356.09 94.0945 353.384 94.0945 350.045C94.0945 346.707 91.3871 344 88.0472 344C84.7074 344 82 346.707 82 350.045C82 353.384 84.7074 356.09 88.0472 356.09Z" fill="#393A4A" />
			<path d="M283.336 449.671C285.179 449.671 286.673 448.177 286.673 446.335C286.673 444.493 285.179 443 283.336 443C281.494 443 280 444.493 280 446.335C280 448.177 281.494 449.671 283.336 449.671Z" fill="#A7A9BC" />
		</g>
		<path d="M474.736 312.056V286.226H395V251.299C414.092 215.137 433.296 182.793 453.848 150H519.658V249.839H538.975V286.226H519.658V312.056H474.736ZM435.317 251.636H476.084V182.681H473.838C460.474 203.906 446.997 226.704 435.317 249.39V251.636Z" fill="#393A4A" />
		<path d="M147.736 312.056V286.226H68V251.299C87.0918 215.137 106.296 182.793 126.848 150H192.658V249.839H211.975V286.226H192.658V312.056H147.736ZM108.317 251.636H149.084V182.681H146.838C133.474 203.906 119.997 226.704 108.317 249.39V251.636Z" fill="#393A4A" />
		<circle cx="304.828" cy="241.999" fill="#CDCED9" r="79.0658" stroke="#393A4A" stroke-width="4" />
		<path d="M266.869 210.562C269.495 210.562 271.624 208.433 271.624 205.806C271.624 203.18 269.495 201.051 266.869 201.051C264.242 201.051 262.113 203.18 262.113 205.806C262.113 208.433 264.242 210.562 266.869 210.562Z" fill="#6DC0AF" />
		<circle cx="304.828" cy="241.999" fill="#CDCED9" r="77.0658" />
		<circle cx="298.438" cy="246.137" fill="white" r="12.7817" />
		<circle cx="284.153" cy="277.337" fill="white" r="8.27048" />
		<circle cx="263.853" cy="233.731" fill="white" r="8.27048" />
		<circle cx="266.861" cy="205.911" fill="#393A4A" r="5.26303" />
		<path d="M266.977 226.379C268.619 227.845 269.657 229.973 269.657 232.349C269.657 236.773 266.071 240.36 261.646 240.36C260.443 240.36 259.304 240.085 258.281 239.612C259.699 240.879 261.563 241.657 263.612 241.657C268.037 241.657 271.623 238.07 271.623 233.646C271.623 230.424 269.717 227.653 266.977 226.383V226.379Z" fill="#A7A9BC" />
		<path d="M333.905 169.574C355.837 183.393 370.412 207.825 370.412 235.663C370.412 278.775 335.462 313.721 292.354 313.721C282.095 313.721 272.302 311.74 263.328 308.142C275.362 315.725 289.606 320.116 304.88 320.116C347.992 320.116 382.938 285.165 382.938 242.057C382.938 209.205 362.642 181.097 333.902 169.578L333.905 169.574Z" fill="#393A4A" />
		<path d="M288.089 270.328C289.54 271.779 290.435 273.783 290.435 275.993C290.435 280.418 286.849 284.004 282.424 284.004C281.071 284.004 279.796 283.666 278.68 283.072C280.131 284.523 282.131 285.418 284.345 285.418C288.77 285.418 292.356 281.831 292.356 277.407C292.356 274.335 290.627 271.67 288.089 270.324V270.328Z" fill="#A7A9BC" />
		<path d="M301.918 234.195C305.313 236.383 307.561 240.191 307.561 244.53C307.561 251.319 302.057 256.823 295.268 256.823C294.001 256.823 292.775 256.631 291.625 256.274C293.542 257.511 295.824 258.232 298.275 258.232C305.065 258.232 310.568 252.729 310.568 245.939C310.568 240.421 306.929 235.748 301.918 234.195Z" fill="#A7A9BC" />
		<path d="M333.461 284.008C340.25 284.008 345.754 278.504 345.754 271.715C345.754 264.926 340.25 259.422 333.461 259.422C326.672 259.422 321.168 264.926 321.168 271.715C321.168 278.504 326.672 284.008 333.461 284.008Z" fill="#393A4A" />
		<path d="M304.885 321.055C261.322 321.055 225.883 285.616 225.883 242.053C225.883 198.49 261.322 163.055 304.885 163.055C348.448 163.055 383.883 198.494 383.883 242.053C383.883 285.612 348.444 321.051 304.885 321.051V321.055ZM304.885 164.934C262.359 164.934 227.762 199.531 227.762 242.053C227.762 284.574 262.359 319.171 304.885 319.171C347.41 319.171 382.003 284.574 382.003 242.053C382.003 199.531 347.406 164.934 304.885 164.934Z" fill="#393A4A" />
		<path d="M333.459 284.942C326.163 284.942 320.227 279.006 320.227 271.709C320.227 264.413 326.163 258.477 333.459 258.477C340.756 258.477 346.692 264.413 346.692 271.709C346.692 279.006 340.756 284.942 333.459 284.942ZM333.459 260.36C327.2 260.36 322.106 265.454 322.106 271.713C322.106 277.972 327.2 283.066 333.459 283.066C339.719 283.066 344.812 277.972 344.812 271.713C344.812 265.454 339.719 260.36 333.459 260.36Z" fill="#393A4A" />
		<path d="M298.276 259.169C290.979 259.169 285.043 253.233 285.043 245.936C285.043 238.639 290.979 232.703 298.276 232.703C305.573 232.703 311.509 238.639 311.509 245.936C311.509 253.233 305.573 259.169 298.276 259.169ZM298.276 234.587C292.016 234.587 286.923 239.68 286.923 245.94C286.923 252.199 292.016 257.293 298.276 257.293C304.535 257.293 309.629 252.199 309.629 245.94C309.629 239.68 304.535 234.587 298.276 234.587Z" fill="#393A4A" />
		<path d="M284.345 286.359C279.409 286.359 275.395 282.344 275.395 277.408C275.395 272.472 279.409 268.457 284.345 268.457C289.281 268.457 293.296 272.472 293.296 277.408C293.296 282.344 289.281 286.359 284.345 286.359ZM284.345 270.333C280.447 270.333 277.274 273.506 277.274 277.404C277.274 281.303 280.447 284.475 284.345 284.475C288.244 284.475 291.417 281.303 291.417 277.404C291.417 273.506 288.244 270.333 284.345 270.333Z" fill="#393A4A" />
		<path d="M263.611 242.597C258.675 242.597 254.66 238.582 254.66 233.646C254.66 228.71 258.675 224.695 263.611 224.695C268.547 224.695 272.562 228.71 272.562 233.646C272.562 238.582 268.547 242.597 263.611 242.597ZM263.611 226.571C259.713 226.571 256.54 229.744 256.54 233.642C256.54 237.541 259.713 240.714 263.611 240.714C267.509 240.714 270.682 237.541 270.682 233.642C270.682 229.744 267.509 226.571 263.611 226.571Z" fill="#393A4A" />
		<path d="M266.871 211.5C263.732 211.5 261.176 208.944 261.176 205.805C261.176 202.666 263.732 200.109 266.871 200.109C270.01 200.109 272.566 202.666 272.566 205.805C272.566 208.944 270.01 211.5 266.871 211.5ZM266.871 201.993C264.766 201.993 263.055 203.703 263.055 205.808C263.055 207.914 264.766 209.624 266.871 209.624C268.976 209.624 270.687 207.914 270.687 205.808C270.687 203.703 268.976 201.993 266.871 201.993Z" fill="#393A4A" />
		<g clip-path="url(#clip2_2030_16124)">
			<path d="M348 82.5C346 87.3 344.833 95.1667 344.5 98.5L344 100.5L345.5 102.5L360.5 108.5L364.5 106.5L369 101L375 88.5L379 74L379.5 61.5L376.5 52L375 50.5L370.5 51.5C366.667 54.8333 358.5 62 356.5 64C354 66.5 350.5 76.5 348 82.5Z" fill="white" />
			<circle cx="364.5" cy="78.5" fill="#D3D6E0" r="7.5" />
			<path clip-rule="evenodd" d="M356.355 74.4039C354.532 78.8338 356.652 83.9222 361.083 85.7462C365.514 87.5701 370.602 85.4484 372.425 81.0185C374.249 76.5886 372.127 71.4997 367.697 69.6762C363.268 67.8528 358.179 69.974 356.355 74.4039ZM358.743 75.3854C360.025 72.2722 363.601 70.7805 366.715 72.0625C369.83 73.3445 371.32 76.9214 370.038 80.0346C368.757 83.1479 365.18 84.6395 362.066 83.3575C358.953 82.0761 357.462 78.4986 358.743 75.3854Z" fill="#393A4A" fill-rule="evenodd" />
			<path clip-rule="evenodd" d="M343.985 102.98L348.304 104.758C347.219 106.137 346.279 107.767 345.543 109.557C343.532 114.441 343.49 119.319 345.434 121.986C345.577 122.181 345.77 122.329 345.986 122.418C346.202 122.507 346.443 122.539 346.683 122.5C349.94 121.974 353.344 118.479 355.354 113.596C356.091 111.804 356.571 109.985 356.771 108.243L361.1 110.025L369.664 121.103C369.803 121.286 369.988 121.423 370.193 121.508C370.4 121.593 370.629 121.624 370.857 121.591C371.313 121.53 371.702 121.23 371.878 120.804L376.663 109.179C376.764 108.932 376.786 108.658 376.726 108.397L373.576 94.7532C374.466 93.0102 375.296 91.2045 376.061 89.3454C382.523 73.6479 382.824 57.5591 376.81 49.3113C376.523 48.9196 376.041 48.7211 375.561 48.7973C365.483 50.4211 354.371 62.0602 347.91 77.7577C347.144 79.6175 346.462 81.4853 345.866 83.3501L334.023 90.8243C333.795 90.9665 333.62 91.1762 333.518 91.4245L328.733 103.049C328.557 103.475 328.624 103.962 328.905 104.327C329.044 104.51 329.229 104.649 329.435 104.734C329.64 104.819 329.868 104.849 330.096 104.821L343.985 102.98ZM345.449 100.791L361.593 107.436C365.117 103.778 368.382 99.1423 371.064 93.9745C371.086 93.932 371.11 93.8911 371.136 93.852C372.046 92.0876 372.894 90.2542 373.673 88.3622C379.534 74.121 380.112 59.1564 375.179 51.4974C366.284 53.4645 356.158 64.4976 350.296 78.7399C349.519 80.6285 348.832 82.5241 348.237 84.4144C348.227 84.4656 348.215 84.5167 348.199 84.5674C346.468 90.1275 345.522 95.7145 345.449 100.791ZM350.805 105.787C349.677 107.079 348.672 108.737 347.93 110.54C346.294 114.514 346.334 117.864 347.103 119.705C348.944 118.938 351.33 116.588 352.966 112.613C353.709 110.808 354.162 108.924 354.27 107.214L350.805 105.787Z" fill="#393A4A" fill-rule="evenodd" />
			<path d="M333.871 148.465C333.599 149.125 333.915 149.878 334.573 150.15C335.232 150.421 335.987 150.107 336.259 149.447L344.483 129.467C344.755 128.807 344.439 128.053 343.781 127.782C343.122 127.51 342.367 127.824 342.095 128.484L333.871 148.465Z" fill="#393A4A" />
			<path d="M327.741 134.742C327.082 134.471 326.767 133.717 327.039 133.057L336.539 109.977C336.811 109.317 337.565 109.004 338.224 109.275C338.883 109.546 339.198 110.3 338.926 110.96L329.426 134.041C329.155 134.7 328.402 135.014 327.741 134.742Z" fill="#393A4A" />
			<path d="M348.734 144.357C348.463 145.017 348.777 145.77 349.437 146.042C350.096 146.313 350.851 145.999 351.122 145.34L360.622 122.259C360.894 121.599 360.58 120.846 359.92 120.574C359.26 120.302 358.506 120.616 358.235 121.276L348.734 144.357Z" fill="#393A4A" />
		</g>
	</g>
	<defs>
		<clipPath id="clip0_2030_16124">
			<rect fill="white" height="571" width="600" />
		</clipPath>
		<clipPath id="clip1_2030_16124">
			<rect fill="white" height="571" transform="translate(-236 10)" width="1045" />
		</clipPath>
		<clipPath id="clip2_2030_16124">
			<rect fill="white" height="101.466" transform="translate(326.941 48.7812)" width="54.1807" />
		</clipPath>
	</defs>
</svg>