<svg fill="none" height="602" viewBox="0 0 709 602" width="709" xmlns="http://www.w3.org/2000/svg">
	<g clip-path="url(#clip0_2061_10528)">
		<path d="M94.3439 103.914C236.767 -4.62011 371.639 23.3614 506.248 121.298C651.188 206.924 624.605 373.176 453.97 374.632C283.336 376.088 238.988 650.559 110.633 594.58C-17.7231 538.6 -48.0794 212.449 94.3439 103.914Z" fill="#111116" />
	</g>
	<path d="M307.527 569.995C307.527 550.873 302.395 544.498 287 544.498C302.395 544.498 307.527 538.122 307.527 519C307.527 538.122 312.659 544.498 328.054 544.498C312.659 544.498 307.527 550.873 307.527 569.995Z" fill="#FFB46E" />
	<path d="M149.29 462.99H147.764C147.764 444.27 142.963 438.26 128 438.26V436.735C142.963 436.735 147.764 430.725 147.764 412H149.29C149.29 430.725 154.091 436.735 169.054 436.735V438.26C154.091 438.26 149.29 444.27 149.29 462.99ZM135.97 437.498C143.217 439.145 147.032 443.609 148.527 452.262C150.022 443.609 153.837 439.145 161.084 437.498C153.837 435.85 150.022 431.386 148.527 422.733C147.032 431.386 143.217 435.85 135.97 437.498Z" fill="#FF5F5F" />
	<path d="M62.5271 106.995C62.5271 87.8733 57.3953 81.4977 42 81.4977C57.3953 81.4977 62.5271 75.122 62.5271 56C62.5271 75.122 67.6589 81.4977 83.0542 81.4977C67.6589 81.4977 62.5271 87.8733 62.5271 106.995Z" fill="#FFB46E" />
	<path d="M372.002 449C374.764 449 377.003 446.761 377.003 444C377.003 441.239 374.764 439 372.002 439C369.239 439 367 441.239 367 444C367 446.761 369.239 449 372.002 449Z" fill="#393A4A" />
	<path d="M580.301 420.448C582.144 420.448 583.638 418.955 583.638 417.113C583.638 415.271 582.144 413.777 580.301 413.777C578.459 413.777 576.965 415.271 576.965 417.113C576.965 418.955 578.459 420.448 580.301 420.448Z" fill="#AF78FF" />
	<path d="M470.415 456.167C472.257 456.167 473.751 454.673 473.751 452.831C473.751 450.989 472.257 449.496 470.415 449.496C468.572 449.496 467.078 450.989 467.078 452.831C467.078 454.673 468.572 456.167 470.415 456.167Z" fill="#FF5F5F" />
	<path d="M416.012 148.971C417.855 148.971 419.349 147.478 419.349 145.636C419.349 143.794 417.855 142.301 416.012 142.301C414.17 142.301 412.676 143.794 412.676 145.636C412.676 147.478 414.17 148.971 416.012 148.971Z" fill="#7785FF" />
	<path d="M407.332 6.67057C409.175 6.67057 410.669 5.17731 410.669 3.33529C410.669 1.49326 409.175 0 407.332 0C405.49 0 403.996 1.49326 403.996 3.33529C403.996 5.17731 405.49 6.67057 407.332 6.67057Z" fill="#FF5F5F" />
	<path d="M153.336 54.6706C155.179 54.6706 156.673 53.1773 156.673 51.3353C156.673 49.4933 155.179 48 153.336 48C151.494 48 150 49.4933 150 51.3353C150 53.1773 151.494 54.6706 153.336 54.6706Z" fill="#AF78FF" />
	<path d="M75.813 187.663C77.6556 187.663 79.1494 186.17 79.1494 184.327C79.1494 182.485 77.6556 180.992 75.813 180.992C73.9703 180.992 72.4766 182.485 72.4766 184.327C72.4766 186.17 73.9703 187.663 75.813 187.663Z" fill="#FF5F5F" />
	<path d="M324.399 377.807C326.242 377.807 327.735 376.314 327.735 374.472C327.735 372.63 326.242 371.137 324.399 371.137C322.556 371.137 321.062 372.63 321.062 374.472C321.062 376.314 322.556 377.807 324.399 377.807Z" fill="#AF78FF" />
	<path d="M58.3364 508.671C60.1791 508.671 61.6728 507.177 61.6728 505.335C61.6728 503.493 60.1791 502 58.3364 502C56.4938 502 55 503.493 55 505.335C55 507.177 56.4938 508.671 58.3364 508.671Z" fill="#FF5F5F" />
	<path d="M167.549 563C170.311 563 172.55 560.761 172.55 558C172.55 555.239 170.311 553 167.549 553C164.786 553 162.547 555.239 162.547 558C162.547 560.761 164.786 563 167.549 563Z" fill="#FFD76E" />
	<path d="M440.65 393.855C443.412 393.855 445.652 391.617 445.652 388.855C445.652 386.094 443.412 383.855 440.65 383.855C437.888 383.855 435.648 386.094 435.648 388.855C435.648 391.617 437.888 393.855 440.65 393.855Z" fill="#FFB46E" />
	<path d="M148.888 138.711C151.651 138.711 153.89 136.472 153.89 133.711C153.89 130.95 151.651 128.711 148.888 128.711C146.126 128.711 143.887 130.95 143.887 133.711C143.887 136.472 146.126 138.711 148.888 138.711Z" fill="#AF78FF" />
	<path d="M269.002 89C271.764 89 274.003 86.7614 274.003 84C274.003 81.2386 271.764 79 269.002 79C266.239 79 264 81.2386 264 84C264 86.7614 266.239 89 269.002 89Z" fill="#FFB46E" />
	<path d="M484.353 87.4492C487.116 87.4492 489.355 85.2106 489.355 82.4492C489.355 79.6878 487.116 77.4492 484.353 77.4492C481.591 77.4492 479.352 79.6878 479.352 82.4492C479.352 85.2106 481.591 87.4492 484.353 87.4492Z" fill="#7785FF" />
	<path d="M601.977 170.991H600.452C600.452 152.271 595.651 146.256 580.688 146.256V144.731C595.651 144.731 600.452 138.721 600.452 119.996H601.977C601.977 138.716 606.779 144.731 621.742 144.731V146.256C606.779 146.256 601.977 152.266 601.977 170.991ZM588.657 145.499C595.905 147.146 599.719 151.61 601.215 160.264C602.71 151.61 606.524 147.146 613.772 145.499C606.524 143.852 602.71 139.388 601.215 130.734C599.719 139.388 595.905 143.852 588.657 145.499Z" fill="#7785FF" />
	<path d="M89.0472 386.09C92.3871 386.09 95.0945 383.384 95.0945 380.045C95.0945 376.707 92.3871 374 89.0472 374C85.7074 374 83 376.707 83 380.045C83 383.384 85.7074 386.09 89.0472 386.09Z" fill="#7785FF" />
	<path d="M264.336 469.671C266.179 469.671 267.673 468.177 267.673 466.335C267.673 464.493 266.179 463 264.336 463C262.494 463 261 464.493 261 466.335C261 468.177 262.494 469.671 264.336 469.671Z" fill="#AF78FF" />
	<g clip-path="url(#clip1_2061_10528)">
		<path d="M150.382 346.06C112.243 346.06 88.6392 324.751 87.1093 297.431L87 295.464H128.089L128.307 296.12C131.039 304.206 139.017 310.763 150.382 310.763C163.276 310.763 172.456 301.911 172.456 289.344V289.126C172.456 276.559 163.167 268.035 150.272 268.035C144.808 268.035 140.219 269.456 136.503 271.969C133.225 274.155 130.602 277.105 128.963 280.165H89.5134L95.7423 184H205.239V218.969H131.586L129.181 255.468H131.367C136.94 244.868 149.07 237.437 164.916 237.437C194.093 237.437 215.293 258.637 215.293 288.252V288.47C215.293 323.112 189.066 346.06 150.382 346.06Z" fill="#F1F2F5" />
		<path d="M465.782 346.06C423.857 346.06 398 314.989 398 265.083V264.87C398 214.965 423.857 184 465.782 184C507.707 184 533.351 214.965 533.351 264.87V265.083C533.351 314.989 507.707 346.06 465.782 346.06ZM465.782 312.009C480.041 312.009 487.702 295.41 487.702 265.083V264.87C487.702 234.544 480.041 218.051 465.782 218.051C451.523 218.051 443.756 234.544 443.756 264.87V265.083C443.756 295.41 451.523 312.009 465.782 312.009Z" fill="#F1F2F5" />
		<circle cx="305.828" cy="271.999" fill="#6B6C7E" r="79.0658" stroke="#6B6C7E" stroke-width="4" />
		<path d="M267.869 240.562C270.495 240.562 272.624 238.433 272.624 235.806C272.624 233.18 270.495 231.051 267.869 231.051C265.242 231.051 263.113 233.18 263.113 235.806C263.113 238.433 265.242 240.562 267.869 240.562Z" fill="#6DC0AF" />
		<circle cx="305.828" cy="271.999" fill="#F1F2F5" r="77.0658" />
		<circle cx="299.438" cy="276.137" fill="white" r="12.7817" />
		<circle cx="285.153" cy="307.337" fill="white" r="8.27048" />
		<circle cx="264.853" cy="263.731" fill="white" r="8.27048" />
		<circle cx="267.861" cy="235.911" fill="#6B6C7E" r="5.26303" />
		<path d="M267.977 256.379C269.619 257.845 270.657 259.973 270.657 262.349C270.657 266.773 267.071 270.36 262.646 270.36C261.443 270.36 260.304 270.085 259.281 269.612C260.699 270.879 262.563 271.657 264.612 271.657C269.037 271.657 272.623 268.07 272.623 263.646C272.623 260.424 270.717 257.653 267.977 256.383V256.379Z" fill="#6B6C7E" />
		<path d="M334.905 199.574C356.837 213.393 371.412 237.825 371.412 265.663C371.412 308.775 336.462 343.721 293.354 343.721C283.095 343.721 273.302 341.74 264.328 338.142C276.362 345.725 290.606 350.116 305.88 350.116C348.992 350.116 383.938 315.165 383.938 272.057C383.938 239.205 363.642 211.097 334.902 199.578L334.905 199.574Z" fill="#6B6C7E" />
		<path d="M289.089 300.328C290.54 301.779 291.435 303.783 291.435 305.993C291.435 310.418 287.849 314.004 283.424 314.004C282.071 314.004 280.796 313.666 279.68 313.072C281.131 314.523 283.131 315.418 285.345 315.418C289.77 315.418 293.356 311.831 293.356 307.407C293.356 304.335 291.627 301.67 289.089 300.324V300.328Z" fill="#6B6C7E" />
		<path d="M302.918 264.195C306.313 266.383 308.561 270.191 308.561 274.53C308.561 281.319 303.057 286.823 296.268 286.823C295.001 286.823 293.775 286.631 292.625 286.274C294.542 287.511 296.824 288.232 299.275 288.232C306.065 288.232 311.568 282.729 311.568 275.939C311.568 270.421 307.929 265.748 302.918 264.195Z" fill="#6B6C7E" />
		<path d="M334.461 314.008C341.25 314.008 346.754 308.504 346.754 301.715C346.754 294.926 341.25 289.422 334.461 289.422C327.672 289.422 322.168 294.926 322.168 301.715C322.168 308.504 327.672 314.008 334.461 314.008Z" fill="#A7A9BC" />
		<path d="M305.885 351.055C262.322 351.055 226.883 315.616 226.883 272.053C226.883 228.49 262.322 193.055 305.885 193.055C349.448 193.055 384.883 228.494 384.883 272.053C384.883 315.612 349.444 351.051 305.885 351.051V351.055ZM305.885 194.934C263.359 194.934 228.762 229.531 228.762 272.053C228.762 314.574 263.359 349.171 305.885 349.171C348.41 349.171 383.003 314.574 383.003 272.053C383.003 229.531 348.406 194.934 305.885 194.934Z" fill="#6B6C7E" />
		<path d="M334.459 314.942C327.163 314.942 321.227 309.006 321.227 301.709C321.227 294.413 327.163 288.477 334.459 288.477C341.756 288.477 347.692 294.413 347.692 301.709C347.692 309.006 341.756 314.942 334.459 314.942ZM334.459 290.36C328.2 290.36 323.106 295.454 323.106 301.713C323.106 307.972 328.2 313.066 334.459 313.066C340.719 313.066 345.812 307.972 345.812 301.713C345.812 295.454 340.719 290.36 334.459 290.36Z" fill="#6B6C7E" />
		<path d="M299.276 289.169C291.979 289.169 286.043 283.233 286.043 275.936C286.043 268.639 291.979 262.703 299.276 262.703C306.573 262.703 312.509 268.639 312.509 275.936C312.509 283.233 306.573 289.169 299.276 289.169ZM299.276 264.587C293.016 264.587 287.923 269.68 287.923 275.94C287.923 282.199 293.016 287.293 299.276 287.293C305.535 287.293 310.629 282.199 310.629 275.94C310.629 269.68 305.535 264.587 299.276 264.587Z" fill="#6B6C7E" />
		<path d="M285.345 316.359C280.409 316.359 276.395 312.344 276.395 307.408C276.395 302.472 280.409 298.457 285.345 298.457C290.281 298.457 294.296 302.472 294.296 307.408C294.296 312.344 290.281 316.359 285.345 316.359ZM285.345 300.333C281.447 300.333 278.274 303.506 278.274 307.404C278.274 311.303 281.447 314.475 285.345 314.475C289.244 314.475 292.417 311.303 292.417 307.404C292.417 303.506 289.244 300.333 285.345 300.333Z" fill="#6B6C7E" />
		<path d="M264.611 272.597C259.675 272.597 255.66 268.582 255.66 263.646C255.66 258.71 259.675 254.695 264.611 254.695C269.547 254.695 273.562 258.71 273.562 263.646C273.562 268.582 269.547 272.597 264.611 272.597ZM264.611 256.571C260.713 256.571 257.54 259.744 257.54 263.642C257.54 267.541 260.713 270.714 264.611 270.714C268.509 270.714 271.682 267.541 271.682 263.642C271.682 259.744 268.509 256.571 264.611 256.571Z" fill="#6B6C7E" />
		<path d="M267.871 241.5C264.732 241.5 262.176 238.944 262.176 235.805C262.176 232.666 264.732 230.109 267.871 230.109C271.01 230.109 273.566 232.666 273.566 235.805C273.566 238.944 271.01 241.5 267.871 241.5ZM267.871 231.993C265.766 231.993 264.055 233.703 264.055 235.808C264.055 237.914 265.766 239.624 267.871 239.624C269.976 239.624 271.687 237.914 271.687 235.808C271.687 233.703 269.976 231.993 267.871 231.993Z" fill="#6B6C7E" />
	</g>
	<g clip-path="url(#clip2_2061_10528)">
		<path d="M349 112.5C347 117.3 345.833 125.167 345.5 128.5L345 130.5L346.5 132.5L361.5 138.5L365.5 136.5L370 131L376 118.5L380 104L380.5 91.5L377.5 82L376 80.5L371.5 81.5C367.667 84.8333 359.5 92 357.5 94C355 96.5 351.5 106.5 349 112.5Z" fill="#B3CDFF" />
		<path d="M346.5 142L351 135H351.5L356.5 136.5V139L355 143.5L351 149.5L347.5 151L346.5 149.5V142Z" fill="#FF5F5F" />
		<circle cx="365.5" cy="108.5" fill="#80ACFF" r="7.5" />
		<path clip-rule="evenodd" d="M357.355 104.404C355.532 108.834 357.652 113.922 362.083 115.746C366.514 117.57 371.602 115.448 373.425 111.019C375.249 106.589 373.127 101.5 368.697 99.6762C364.268 97.8528 359.179 99.974 357.355 104.404ZM359.743 105.385C361.025 102.272 364.601 100.781 367.715 102.063C370.83 103.344 372.32 106.921 371.038 110.035C369.757 113.148 366.18 114.639 363.066 113.358C359.953 112.076 358.462 108.499 359.743 105.385Z" fill="#525368" fill-rule="evenodd" />
		<path clip-rule="evenodd" d="M344.985 132.98L349.304 134.758C348.219 136.137 347.279 137.767 346.543 139.557C344.532 144.441 344.49 149.319 346.434 151.986C346.577 152.181 346.77 152.329 346.986 152.418C347.202 152.507 347.443 152.539 347.683 152.5C350.94 151.974 354.344 148.479 356.354 143.596C357.091 141.804 357.571 139.985 357.771 138.243L362.1 140.025L370.664 151.103C370.803 151.286 370.988 151.423 371.193 151.508C371.4 151.593 371.629 151.624 371.857 151.591C372.313 151.53 372.702 151.23 372.878 150.804L377.663 139.179C377.764 138.932 377.786 138.658 377.726 138.397L374.576 124.753C375.466 123.01 376.296 121.205 377.061 119.345C383.523 103.648 383.824 87.5591 377.81 79.3113C377.523 78.9196 377.041 78.7211 376.561 78.7973C366.483 80.4211 355.371 92.0602 348.91 107.758C348.144 109.618 347.462 111.485 346.866 113.35L335.023 120.824C334.795 120.967 334.62 121.176 334.518 121.425L329.733 133.049C329.557 133.475 329.624 133.962 329.905 134.327C330.044 134.51 330.229 134.649 330.435 134.734C330.64 134.819 330.868 134.849 331.096 134.821L344.985 132.98ZM346.449 130.791L362.593 137.436C366.117 133.778 369.382 129.142 372.064 123.974C372.086 123.932 372.11 123.891 372.136 123.852C373.046 122.088 373.894 120.254 374.673 118.362C380.534 104.121 381.112 89.1564 376.179 81.4974C367.284 83.4645 357.158 94.4976 351.296 108.74C350.519 110.629 349.832 112.524 349.237 114.414C349.227 114.466 349.215 114.517 349.199 114.567C347.468 120.127 346.522 125.714 346.449 130.791ZM351.805 135.787C350.677 137.079 349.672 138.737 348.93 140.54C347.294 144.514 347.334 147.864 348.103 149.705C349.944 148.938 352.33 146.588 353.966 142.613C354.709 140.808 355.162 138.924 355.27 137.214L351.805 135.787Z" fill="#525368" fill-rule="evenodd" />
		<path d="M334.871 178.465C334.599 179.125 334.915 179.878 335.573 180.15C336.232 180.421 336.987 180.107 337.259 179.447L345.483 159.467C345.755 158.807 345.439 158.053 344.781 157.782C344.122 157.51 343.367 157.824 343.095 158.484L334.871 178.465Z" fill="#525368" />
		<path d="M328.741 164.742C328.082 164.471 327.767 163.717 328.039 163.057L337.539 139.977C337.811 139.317 338.565 139.004 339.224 139.275C339.883 139.546 340.198 140.3 339.926 140.96L330.426 164.041C330.155 164.7 329.402 165.014 328.741 164.742Z" fill="#525368" />
		<path d="M349.734 174.357C349.463 175.017 349.777 175.77 350.437 176.042C351.096 176.313 351.851 175.999 352.122 175.34L361.622 152.259C361.894 151.599 361.58 150.846 360.92 150.574C360.26 150.302 359.506 150.616 359.235 151.276L349.734 174.357Z" fill="#525368" />
	</g>
	<defs>
		<clipPath id="clip0_2061_10528">
			<rect fill="white" height="602" width="622" />
		</clipPath>
		<clipPath id="clip1_2061_10528">
			<rect fill="white" height="171.055" transform="translate(69 180)" width="470.975" />
		</clipPath>
		<clipPath id="clip2_2061_10528">
			<rect fill="white" height="101.466" transform="translate(327.941 78.7812)" width="54.1807" />
		</clipPath>
	</defs>
</svg>