<svg fill="none" height="36" viewBox="0 0 216 36" width="216" xmlns="http://www.w3.org/2000/svg">
	<rect fill="#28282B" height="36" width="216" />
	<path clip-rule="evenodd" d="M38.9996 29.7419L28.8652 23.8709V14.9459L37.7841 20.1129C38.1608 20.3309 38.5807 20.44 38.9996 20.44C39.4195 20.44 39.8395 20.3309 40.2161 20.1129L49.135 14.9459V23.8709L38.9996 29.7419ZM38.9994 6.25797L46.7038 10.7199L38.9994 15.1819L31.296 10.7199L38.9994 6.25797ZM53.9979 10.6862C53.9979 10.6618 53.9968 10.6375 53.9958 10.6131C53.9937 10.5644 53.9894 10.5147 53.9852 10.467C53.9821 10.4448 53.981 10.4236 53.9778 10.4025C53.9694 10.3389 53.9589 10.2754 53.9451 10.214C53.9399 10.1886 53.9346 10.1653 53.9283 10.141C53.9166 10.0912 53.9019 10.0404 53.886 9.99066C53.8808 9.97266 53.8776 9.95573 53.8713 9.93879C53.8491 9.87316 53.8238 9.80964 53.7964 9.74612C53.789 9.73025 53.7816 9.71225 53.7732 9.69531C53.712 9.56299 53.6392 9.4349 53.5547 9.31528C53.5442 9.30046 53.5326 9.28563 53.5231 9.27081C53.4819 9.21471 53.4397 9.16178 53.3944 9.10991C53.3828 9.09615 53.369 9.08344 53.3574 9.07074C53.3216 9.03263 53.2857 8.99346 53.2477 8.95747C53.2298 8.94159 53.2129 8.92359 53.1939 8.90666C53.1464 8.86431 53.0979 8.82303 53.0472 8.78386C53.0304 8.7701 53.0114 8.75845 52.9945 8.74575C52.9554 8.71823 52.9153 8.6907 52.8753 8.6653C52.8542 8.65048 52.833 8.63671 52.8109 8.62507C52.8014 8.61872 52.793 8.61237 52.7824 8.60707L40.216 1.32711C39.4627 0.890965 38.5373 0.890965 37.784 1.32711L25.2165 8.60707C25.2081 8.61237 25.1986 8.61872 25.1902 8.62401C25.167 8.63671 25.1448 8.65154 25.1226 8.66636C25.0836 8.6907 25.0456 8.71717 25.0076 8.74363C24.9897 8.75845 24.9696 8.7701 24.9517 8.78492C24.9021 8.82303 24.8536 8.86431 24.8072 8.9056C24.7871 8.92359 24.7692 8.94159 24.7502 8.95853C24.7143 8.99452 24.6784 9.03157 24.6447 9.06862C24.631 9.08238 24.6183 9.09615 24.6046 9.10991C24.5603 9.16178 24.5181 9.21471 24.478 9.26976C24.4674 9.28563 24.4558 9.30046 24.4453 9.31633C24.3608 9.43596 24.288 9.56299 24.2268 9.69531C24.2184 9.71225 24.21 9.73024 24.2036 9.74718C24.1762 9.80964 24.1509 9.87316 24.1287 9.93773C24.1224 9.95679 24.1182 9.97372 24.1129 9.99172C24.0971 10.0415 24.0834 10.0912 24.0717 10.1399C24.0654 10.1653 24.0591 10.1886 24.0538 10.214C24.0411 10.2754 24.0295 10.3389 24.0222 10.4014C24.019 10.4236 24.0169 10.4459 24.0148 10.4681C24.0095 10.5157 24.0063 10.5634 24.0042 10.6121C24.0032 10.6364 24.0021 10.6618 24.0011 10.6872C24.0011 10.6978 24 10.7094 24 10.72V25.28C24 26.1512 24.4642 26.9568 25.2165 27.3929L37.784 34.6729C38.1607 34.891 38.5806 35 38.9995 35C39.4194 35 39.8393 34.891 40.216 34.6729L52.7824 27.3929C53.5358 26.9568 54 26.1512 54 25.28V10.72C54 10.7094 53.9989 10.6978 53.9979 10.6862Z" fill="url(#paint0_angular_4577_212380)" fill-rule="evenodd" />
	<path d="M63.7171 11.0576H66.5395L69.7467 21.0543L72.9539 11.0576H75.7763L70.8914 25.426H68.602L63.7171 11.0576ZM62 11.0576H64.921L65.4638 22.0707V25.426H62V11.0576ZM74.5723 11.0576H77.5033V25.426H74.0296V22.0707L74.5723 11.0576Z" fill="white" />
	<path d="M84.0894 14.7484V25.426H80.7539V14.7484H84.0894ZM80.5566 11.9951C80.5566 11.5214 80.7276 11.1332 81.0697 10.8306C81.4118 10.528 81.8559 10.3766 82.4019 10.3766C82.948 10.3766 83.3921 10.528 83.7342 10.8306C84.0763 11.1332 84.2473 11.5214 84.2473 11.9951C84.2473 12.4687 84.0763 12.8569 83.7342 13.1595C83.3921 13.4622 82.948 13.6135 82.4019 13.6135C81.8559 13.6135 81.4118 13.4622 81.0697 13.1595C80.7276 12.8569 80.5566 12.4687 80.5566 11.9951Z" fill="white" />
	<path d="M90.419 17.028V25.426H87.0934V14.7484H90.2118L90.419 17.028ZM90.0243 19.722L89.2447 19.7418C89.2447 18.926 89.3434 18.199 89.5407 17.5608C89.7381 16.9161 90.0177 16.3701 90.3796 15.9227C90.7414 15.4753 91.1723 15.1365 91.6723 14.9062C92.1789 14.6694 92.7414 14.551 93.3598 14.551C93.8532 14.551 94.3039 14.6234 94.7118 14.7681C95.1263 14.9128 95.4815 15.1464 95.7776 15.4687C96.0802 15.7911 96.3105 16.2187 96.4684 16.7516C96.6328 17.278 96.7151 17.9293 96.7151 18.7056V25.426H93.3697V18.6957C93.3697 18.2681 93.3105 17.9424 93.1921 17.7187C93.0736 17.4885 92.9026 17.3306 92.6789 17.2451C92.4552 17.1595 92.1822 17.1168 91.8598 17.1168C91.5177 17.1168 91.2282 17.1826 90.9914 17.3141C90.7546 17.4457 90.5638 17.6299 90.419 17.8668C90.2809 18.097 90.1789 18.3701 90.1131 18.6858C90.0539 19.0016 90.0243 19.347 90.0243 19.722Z" fill="white" />
	<path d="M103.084 14.7484V25.426H99.7486V14.7484H103.084ZM99.5513 11.9951C99.5513 11.5214 99.7223 11.1332 100.064 10.8306C100.407 10.528 100.851 10.3766 101.397 10.3766C101.943 10.3766 102.387 10.528 102.729 10.8306C103.071 11.1332 103.242 11.5214 103.242 11.9951C103.242 12.4687 103.071 12.8569 102.729 13.1595C102.387 13.4622 101.943 13.6135 101.397 13.6135C100.851 13.6135 100.407 13.4622 100.064 13.1595C99.7223 12.8569 99.5513 12.4687 99.5513 11.9951Z" fill="white" />
	<path d="M112.384 22.8306V14.7484H115.72V25.426H112.601L112.384 22.8306ZM112.7 20.6595L113.568 20.6398C113.568 21.3569 113.483 22.0214 113.312 22.6332C113.141 23.2385 112.887 23.7648 112.552 24.2122C112.223 24.6595 111.815 25.0082 111.328 25.2582C110.848 25.5016 110.292 25.6233 109.66 25.6233C109.134 25.6233 108.651 25.551 108.21 25.4062C107.776 25.2549 107.401 25.0214 107.085 24.7056C106.769 24.3832 106.522 23.972 106.345 23.472C106.174 22.9654 106.088 22.3602 106.088 21.6562V14.7484H109.414V21.676C109.414 21.9128 109.443 22.1168 109.503 22.2878C109.562 22.4589 109.647 22.6036 109.759 22.722C109.871 22.8339 110.009 22.9194 110.174 22.9786C110.345 23.0312 110.539 23.0575 110.756 23.0575C111.256 23.0575 111.647 22.9523 111.93 22.7418C112.213 22.5312 112.41 22.245 112.522 21.8832C112.641 21.5214 112.7 21.1135 112.7 20.6595Z" fill="white" />
	<path d="M121.921 17.0082V25.426H118.595V14.7484H121.714L121.921 17.0082ZM121.516 19.722L120.756 19.7418C120.756 18.9918 120.845 18.301 121.023 17.6694C121.201 17.0378 121.464 16.4885 121.812 16.0214C122.161 15.5543 122.589 15.1924 123.095 14.9359C123.608 14.6793 124.201 14.551 124.872 14.551C125.339 14.551 125.763 14.6234 126.145 14.7681C126.526 14.9062 126.855 15.1266 127.131 15.4293C127.408 15.7253 127.618 16.1135 127.763 16.5937C127.914 17.0674 127.99 17.6365 127.99 18.301V25.426H124.664V18.7253C124.664 18.2714 124.612 17.9293 124.506 17.699C124.408 17.4687 124.263 17.3141 124.072 17.2352C123.881 17.1562 123.648 17.1168 123.372 17.1168C123.082 17.1168 122.822 17.1826 122.592 17.3141C122.362 17.4457 122.164 17.6299 122 17.8668C121.842 18.097 121.72 18.3701 121.635 18.6858C121.556 19.0016 121.516 19.347 121.516 19.722ZM127.615 19.722L126.687 19.7418C126.687 18.9918 126.77 18.301 126.934 17.6694C127.105 17.0378 127.358 16.4885 127.694 16.0214C128.036 15.5543 128.46 15.1924 128.967 14.9359C129.474 14.6793 130.062 14.551 130.733 14.551C131.22 14.551 131.668 14.6234 132.076 14.7681C132.483 14.9128 132.835 15.1464 133.131 15.4687C133.428 15.7911 133.658 16.2187 133.822 16.7516C133.987 17.278 134.069 17.9293 134.069 18.7056V25.426H130.733V18.7056C130.733 18.2648 130.681 17.9326 130.576 17.7089C130.477 17.4786 130.332 17.324 130.141 17.2451C129.951 17.1595 129.724 17.1168 129.46 17.1168C129.145 17.1168 128.872 17.1826 128.641 17.3141C128.411 17.4457 128.217 17.6299 128.059 17.8668C127.908 18.097 127.796 18.3701 127.724 18.6858C127.651 19.0016 127.615 19.347 127.615 19.722Z" fill="white" />
	<defs>
		<radialGradient cx="0" cy="0" gradientTransform="translate(39 21.7778) rotate(90) scale(17 20.7692)" gradientUnits="userSpaceOnUse" id="paint0_angular_4577_212380" r="1">
			<stop stop-color="#6A51FF" />
			<stop offset="0.484375" stop-color="#92EBFF" />
			<stop offset="0.510417" stop-color="#FFF500" />
			<stop offset="1" stop-color="#FF00DC" />
		</radialGradient>
	</defs>
</svg>