<svg fill="none" height="40" viewBox="0 0 158 40" width="158" xmlns="http://www.w3.org/2000/svg">
	<path d="M15.4265 12.7967L20.7989 17.3521C21.4527 17.9427 21.538 18.955 20.941 19.6017L14.6306 26.8567C14.3535 27.1856 13.9683 27.3676 13.5673 27.4026C13.5043 27.4134 13.4324 27.4191 13.3515 27.4191L8.54761 27.3628C7.95068 27.3628 7.35374 26.8567 7.26847 26.2661L6.53404 21.7723C6.45446 21.2586 6.4666 20.6661 6.84209 20.2204L13.1525 12.9654C13.721 12.2906 14.7443 12.2343 15.4265 12.7967Z" fill="#1AA0E8" />
	<path d="M20.9126 26.7442L15.5686 22.1887C14.8864 21.6263 14.8012 20.614 15.3981 19.9392L21.7085 12.6842C22.076 12.248 22.5627 12.1321 23.1662 12.151L27.8199 12.1781C28.4169 12.1781 29.0138 12.6842 29.0991 13.2747L29.8666 17.9708C29.8769 18.0423 29.8818 18.1077 29.8816 18.1666C29.9064 18.5703 29.7782 18.9867 29.497 19.3205L23.1866 26.5754C22.6181 27.2503 21.5948 27.3066 20.9126 26.7442Z" fill="#0B63CE" />
	<path d="M18.9857 15.8146L20.7989 17.3521C21.4527 17.9427 21.5379 18.955 20.941 19.6017L17.3615 23.717L15.5686 22.1888C14.8864 21.6264 14.8012 20.614 15.3981 19.9392L18.9857 15.8146Z" fill="#134194" />
	<path d="M36.985 16.4189C36.5663 17.5845 36.3616 18.8143 36.3803 20.0508C36.3617 21.2893 36.5635 22.5214 36.9765 23.6911C37.3272 24.6838 37.8773 25.5966 38.5938 26.3749C39.2656 27.092 40.0896 27.654 41.007 28.0207C41.9614 28.3997 42.9817 28.5909 44.0106 28.5833C45.0126 28.5965 46.0046 28.3849 46.9115 27.9644C47.8064 27.5336 48.6017 26.9255 49.2476 26.178L47.579 24.3803C47.1392 24.8733 46.6137 25.2849 46.0272 25.5957C45.4174 25.8946 44.7428 26.0424 44.0619 26.0261C43.4095 26.0488 42.7612 25.9144 42.1733 25.6345C41.5853 25.3546 41.0754 24.9377 40.6875 24.4197C39.8565 23.3469 39.441 21.8653 39.441 19.9748C39.43 19.1269 39.5473 18.2821 39.789 17.4682C39.9895 16.7844 40.3206 16.1446 40.7645 15.5833C41.1656 15.083 41.6741 14.6766 42.2535 14.3933C42.8491 14.1098 43.5033 13.9663 44.1646 13.9742C44.7567 13.961 45.3434 14.0873 45.8761 14.3427C46.384 14.6021 46.847 14.9392 47.2481 15.3414L48.9168 13.5184C48.333 12.9219 47.6523 12.4256 46.9029 12.0499C46.0492 11.6185 45.1009 11.4011 44.1418 11.4169C43.0993 11.4109 42.0662 11.6119 41.104 12.0077C40.1692 12.3895 39.3287 12.9652 38.6395 13.6957C37.9086 14.4849 37.346 15.411 36.985 16.4189Z" fill="#272833" />
	<path clip-rule="evenodd" d="M50.9363 19.3164C50.5982 20.1976 50.4327 21.1341 50.4485 22.0762C50.4327 23.0183 50.5982 23.9547 50.9363 24.836C51.2325 25.6007 51.6827 26.2984 52.2598 26.8868C52.8009 27.4351 53.4517 27.8662 54.171 28.1528C54.8885 28.4395 55.6559 28.5857 56.4301 28.5832C57.2117 28.5857 57.9865 28.4396 58.712 28.1528C59.4331 27.8696 60.0847 27.438 60.6232 26.8868C61.1946 26.294 61.6441 25.5975 61.9467 24.836C62.6123 23.0547 62.6123 21.0977 61.9467 19.3164C61.6441 18.5548 61.1946 17.8584 60.6232 17.2655C60.0829 16.7136 59.432 16.2787 58.712 15.9883C57.9886 15.6931 57.213 15.542 56.4301 15.5438C55.6545 15.542 54.8864 15.6931 54.171 15.9883C53.4529 16.2821 52.8027 16.7167 52.2598 17.2655C51.6827 17.854 51.2325 18.5516 50.9363 19.3164ZM54.2594 25.0779C53.7384 24.3258 53.4778 23.3253 53.4778 22.0762C53.4759 20.8102 53.7365 19.8021 54.2594 19.0519C54.4924 18.696 54.8147 18.4054 55.195 18.2082C55.5752 18.0111 56.0007 17.9141 56.4301 17.9267C56.861 17.9146 57.2879 18.0117 57.6699 18.2087C58.0519 18.4057 58.3763 18.6961 58.6122 19.0519C59.1428 19.8172 59.408 20.8252 59.408 22.0762C59.408 23.3271 59.1428 24.3277 58.6122 25.0779C58.3765 25.434 58.0522 25.7245 57.6701 25.9215C57.288 26.1185 56.8611 26.2155 56.4301 26.2032C56.0006 26.216 55.5751 26.1192 55.1948 25.922C54.8144 25.7248 54.4922 25.4341 54.2594 25.0779Z" fill="#272833" fill-rule="evenodd" />
	<path d="M64.8503 15.8477H67.2892L67.4945 17.5357H67.5972C68.1118 16.9954 68.6947 16.5227 69.3315 16.1291C69.9653 15.7377 70.7003 15.5354 71.448 15.5467C72.2312 15.5082 73.007 15.7118 73.6672 16.1291C74.2474 16.5418 74.6926 17.1129 74.9479 17.772C75.5042 17.1668 76.1336 16.6311 76.822 16.1769C77.469 15.7559 78.229 15.5355 79.0041 15.5439C80.3352 15.5439 81.3193 15.9706 81.9564 16.8239C82.5934 17.6773 82.91 18.8964 82.9062 20.4811V28.2794H79.9197V20.8609C79.9197 19.8313 79.7609 19.1055 79.4434 18.6835C79.2731 18.4687 79.0519 18.2986 78.7991 18.1882C78.5464 18.0778 78.27 18.0305 77.9943 18.0505C77.2071 18.0505 76.3257 18.5653 75.3501 19.595V28.2794H72.3979V20.8609C72.3979 19.8313 72.2391 19.1055 71.9215 18.6835C71.7471 18.4669 71.5214 18.2959 71.2642 18.1855C71.0071 18.0751 70.7264 18.0288 70.4468 18.0505C69.6595 18.0505 68.7781 18.5653 67.8026 19.595V28.2794H64.8503V15.8477Z" fill="#272833" />
	<path d="M88.4171 15.8477H85.9783V28.2794H88.9305V19.595C89.9061 18.5653 90.7875 18.0505 91.5747 18.0505C91.8543 18.0288 92.135 18.0751 92.3922 18.1855C92.6493 18.2959 92.875 18.4669 93.0494 18.6835C93.367 19.1055 93.5258 19.8313 93.5258 20.8609V28.2794H96.4781V19.595C97.4536 18.5653 98.335 18.0505 99.1223 18.0505C99.3979 18.0305 99.6743 18.0778 99.927 18.1882C100.18 18.2986 100.401 18.4687 100.571 18.6835C100.889 19.1055 101.048 19.8313 101.048 20.8609V28.2794H104.014V20.4811C104.018 18.8964 103.701 17.6773 103.064 16.8239C102.427 15.9706 101.443 15.5439 100.112 15.5439C99.3369 15.5355 98.577 15.7559 97.9299 16.1769C97.2416 16.6311 96.6122 17.1668 96.0559 17.772C95.806 17.1154 95.368 16.5446 94.7951 16.1291C94.1349 15.7118 93.3591 15.5082 92.5759 15.5467C91.8274 15.5359 91.0916 15.738 90.4566 16.1291C89.8212 16.5235 89.2394 16.9962 88.7252 17.5357H88.6225L88.4171 15.8477Z" fill="#272833" />
	<path clip-rule="evenodd" d="M106.285 22.0762C106.269 21.1397 106.435 20.2088 106.773 19.3333C107.065 18.5734 107.505 17.8768 108.068 17.2825C108.595 16.7339 109.228 16.2949 109.93 15.9912C110.609 15.6922 111.344 15.537 112.087 15.5354C112.862 15.5198 113.632 15.6665 114.346 15.9659C114.978 16.2394 115.536 16.6557 115.975 17.1812C116.427 17.7337 116.764 18.3697 116.964 19.052C117.194 19.8248 117.306 20.6268 117.298 21.432C117.31 21.8911 117.267 22.35 117.17 22.7992H109.16C109.297 23.9245 109.695 24.7938 110.352 25.4071C111.042 26.0263 111.951 26.3536 112.883 26.3186C113.401 26.3236 113.917 26.2428 114.409 26.0795C114.9 25.9089 115.37 25.6833 115.809 25.4071L116.81 27.2301C116.187 27.6303 115.517 27.9535 114.814 28.1922C114.071 28.4466 113.29 28.575 112.503 28.572C111.669 28.5782 110.842 28.4283 110.064 28.1303C109.323 27.8421 108.65 27.4064 108.088 26.8503C107.507 26.2701 107.056 25.5762 106.764 24.8135C106.434 23.9382 106.271 23.01 106.285 22.0762ZM114.731 20.9509C114.731 19.955 114.521 19.1786 114.101 18.6216C113.68 18.0645 113.035 17.7832 112.164 17.7776C111.797 17.7754 111.434 17.8448 111.094 17.982C110.755 18.1191 110.447 18.3212 110.187 18.5765C109.617 19.1092 109.266 19.8978 109.135 20.9425L114.731 20.9509Z" fill="#272833" fill-rule="evenodd" />
	<path d="M122.047 15.8478H119.609V28.2711H122.561V20.6754C122.955 19.7264 123.425 19.0643 123.973 18.6892C124.423 18.3466 124.97 18.15 125.539 18.1266C125.771 18.1233 126.003 18.1403 126.232 18.1772C126.44 18.2158 126.646 18.2666 126.848 18.3291L127.362 15.7972C126.809 15.577 126.208 15.4976 125.616 15.5664C125.024 15.6353 124.459 15.8501 123.973 16.191C123.292 16.6754 122.737 17.3128 122.356 18.0506H122.253L122.047 15.8478Z" fill="#272833" />
	<path d="M127.592 22.0763C127.575 21.1318 127.749 20.1933 128.106 19.3165C128.421 18.5465 128.893 17.8485 129.492 17.2656C130.069 16.7106 130.754 16.2762 131.506 15.9884C132.271 15.6921 133.086 15.5412 133.908 15.5439C134.644 15.5256 135.375 15.6668 136.05 15.9575C136.622 16.2122 137.147 16.5582 137.605 16.9815L136.178 18.8298C135.867 18.5641 135.521 18.339 135.151 18.1603C134.806 17.9991 134.429 17.9165 134.048 17.9183C133.573 17.9038 133.101 17.9978 132.669 18.193C132.237 18.3882 131.856 18.6793 131.557 19.0436C130.924 19.7938 130.608 20.8019 130.608 22.0678C130.608 23.3338 130.919 24.3344 131.543 25.0696C131.831 25.4306 132.2 25.7204 132.622 25.9158C133.043 26.1112 133.505 26.2067 133.971 26.1949C134.464 26.2002 134.953 26.0924 135.397 25.8798C135.816 25.6786 136.209 25.4273 136.566 25.1315L137.798 26.9798C137.218 27.4911 136.548 27.8943 135.822 28.1698C135.134 28.434 134.403 28.5713 133.665 28.5749C132.844 28.5812 132.03 28.4352 131.264 28.1444C130.533 27.866 129.872 27.434 129.327 26.8785C128.758 26.2908 128.321 25.5922 128.043 24.8276C127.727 23.9445 127.574 23.0126 127.592 22.0763Z" fill="#272833" />
	<path clip-rule="evenodd" d="M138.811 19.3333C138.473 20.2088 138.308 21.1397 138.323 22.0762C138.31 23.0101 138.472 23.9383 138.802 24.8135C139.094 25.5763 139.545 26.2701 140.126 26.8503C140.688 27.4071 141.361 27.8429 142.103 28.1303C142.88 28.4283 143.708 28.5782 144.542 28.572C145.328 28.5745 146.109 28.4461 146.852 28.1922C147.555 27.9529 148.225 27.6298 148.849 27.2301L147.848 25.4071C147.408 25.6834 146.938 25.909 146.447 26.0795C145.955 26.2425 145.44 26.3234 144.921 26.3186C143.989 26.3536 143.08 26.0263 142.391 25.4071C141.733 24.7938 141.335 23.9245 141.199 22.7992H149.208C149.305 22.35 149.348 21.8911 149.336 21.432C149.343 20.6269 149.231 19.8252 149.003 19.052C148.805 18.3736 148.472 17.7406 148.024 17.1896C147.586 16.6642 147.028 16.2479 146.396 15.9743C145.682 15.6755 144.912 15.5288 144.136 15.5439C143.393 15.5452 142.659 15.7004 141.98 15.9996C141.274 16.2988 140.637 16.7351 140.106 17.2825C139.543 17.8761 139.103 18.5728 138.811 19.3333ZM146.139 18.6216C146.559 19.1786 146.769 19.9551 146.769 20.9509L141.173 20.9425C141.307 19.896 141.655 19.1083 142.225 18.5766C142.485 18.321 142.793 18.1187 143.132 17.9816C143.472 17.8444 143.835 17.7751 144.202 17.7776C145.073 17.7832 145.719 18.0646 146.139 18.6216Z" fill="#272833" fill-rule="evenodd" />
</svg>