<svg fill="none" height="16" viewBox="0 0 16 16" width="16" xmlns="http://www.w3.org/2000/svg">
	<mask height="14" id="mask0_4716_101783" maskUnits="userSpaceOnUse" style="mask-type:alpha" width="16" x="0" y="1">
		<path d="M15.9688 3.06165C15.3811 3.3219 14.7497 3.49752 14.0871 3.57577C14.7633 3.17174 15.2835 2.53114 15.528 1.76858C14.8947 2.1426 14.1939 2.41467 13.4474 2.56118C12.8497 1.92601 11.9983 1.5293 11.0556 1.5293C9.246 1.5293 7.77952 2.99251 7.77952 4.79606C7.77952 5.05177 7.80872 5.30107 7.86439 5.54042C5.14133 5.40392 2.72761 4.10358 1.11145 2.12717C0.829474 2.60948 0.667945 3.17087 0.667945 3.76965C0.667945 4.90348 1.2465 5.90352 2.12532 6.48861C1.58781 6.47132 1.08317 6.3248 0.641497 6.08004C0.641497 6.0937 0.641497 6.10732 0.641497 6.121C0.641497 7.70433 1.77123 9.0238 3.26968 9.32404C2.99499 9.39865 2.70572 9.43871 2.40639 9.43871C2.19559 9.43871 1.99024 9.41778 1.7895 9.37959C2.20653 10.6772 3.41661 11.6226 4.85025 11.6481C3.72872 12.5244 2.31607 13.0467 0.781162 13.0467C0.516491 13.0467 0.255532 13.0312 0 13.0012C1.45007 13.9285 3.17205 14.469 5.02272 14.469C11.0493 14.469 14.3445 9.49058 14.3445 5.17371C14.3445 5.03174 14.3408 4.89163 14.3353 4.75149C14.9741 4.29195 15.5299 3.71687 15.9688 3.06168L15.9688 3.06165Z" fill="#6B6C7E" />
	</mask>
	<g mask="url(#mask0_4716_101783)">
		<rect fill="#6B6C7E" height="16" width="16" />
	</g>
</svg>