<svg fill="none" height="16" viewBox="0 0 16 16" width="16" xmlns="http://www.w3.org/2000/svg">
	<mask height="16" id="mask0_4596_53313" maskUnits="userSpaceOnUse" style="mask-type:alpha" width="17" x="0" y="0">
		<path clip-rule="evenodd" d="M1.18164 0H14.8154C15.4688 0 16 0.515625 16.0029 1.15308V14.8469C16.0029 15.4812 15.4717 16 14.8184 16H1.18164C0.52832 16 0 15.4812 0 14.8438V1.15308C0 0.515625 0.52832 0 1.18164 0ZM2.37207 13.6343H4.74707V5.99683H2.37207V13.6343ZM2.18164 3.58118C2.18164 1.6875 4.93457 1.6875 4.93457 3.58118C4.93457 5.46875 2.18164 5.40625 2.18164 3.58118ZM11.2627 13.6344H13.6338V9.44373C13.6338 7.38757 13.1904 5.80627 10.7871 5.80627C9.63379 5.80627 8.85938 6.44067 8.54395 7.04065H8.5127V5.99695H6.2373V13.6344H8.60645V9.85938C8.60645 8.86255 8.79395 7.89685 10.0283 7.89685C11.2471 7.89685 11.2627 9.03748 11.2627 9.92188V13.6344Z" fill="#6B6C7E" fill-rule="evenodd" />
	</mask>
	<g mask="url(#mask0_4596_53313)">
		<rect fill="#6B6C7E" height="16" width="16" />
	</g>
</svg>