<svg fill="none" height="24" viewBox="0 0 103 24" width="103" xmlns="http://www.w3.org/2000/svg">
	<path d="M20.0853 12.0398C20.0711 11.1222 20.2217 10.2103 20.5285 9.34674C20.7926 8.59962 21.2074 7.91215 21.7415 7.32695C22.2471 6.78437 22.8636 6.35825 23.551 6.07418C24.2584 5.77874 25.0169 5.63102 25.781 5.63386C26.4855 5.6225 27.1815 5.78442 27.8065 6.10259C28.3576 6.38098 28.8547 6.75028 29.2837 7.1906L28.0593 8.5428C27.7639 8.24452 27.4258 7.99453 27.0508 7.80136C26.6588 7.61103 26.2299 7.51729 25.7952 7.52865C25.3095 7.52297 24.8294 7.62808 24.3919 7.83829C23.9658 8.04851 23.5936 8.34963 23.2982 8.72177C22.9715 9.13936 22.73 9.61377 22.5823 10.1194C22.4062 10.7217 22.3181 11.3495 22.3267 11.9801C22.3267 13.3835 22.6306 14.4828 23.2414 15.2782C23.5255 15.6618 23.9004 15.9714 24.3322 16.1788C24.764 16.3861 25.2384 16.4856 25.7185 16.4685C26.2185 16.4799 26.7128 16.3719 27.1616 16.1504C27.5934 15.9203 27.9769 15.6135 28.3008 15.2498L29.5252 16.5822C29.0507 17.1361 28.4684 17.5878 27.8093 17.906C27.1446 18.2184 26.4145 18.3747 25.6788 18.3662C24.9231 18.3718 24.176 18.2298 23.4743 17.9486C22.8011 17.6759 22.196 17.2611 21.7017 16.727C21.1761 16.1504 20.7728 15.4714 20.5142 14.7357C20.2103 13.8692 20.0626 12.9545 20.0768 12.0341L20.0853 12.0398Z" fill="#6B6C7E" />
	<path d="M30.4115 13.5425C30.4001 12.8437 30.5223 12.1477 30.7694 11.4944C30.9881 10.9262 31.3177 10.4092 31.7409 9.9717C32.1386 9.56548 32.6159 9.24163 33.1443 9.02573C33.6698 8.80699 34.2323 8.69336 34.8033 8.6962C35.3771 8.6962 35.9481 8.80699 36.4793 9.02573C37.0077 9.24163 37.485 9.56264 37.8827 9.9717C38.3031 10.412 38.6326 10.929 38.8542 11.4944C39.3428 12.8153 39.3428 14.2669 38.8542 15.5879C38.6326 16.1532 38.3031 16.6702 37.8827 17.1077C37.4878 17.5168 37.0106 17.8378 36.4793 18.048C35.9481 18.2611 35.3771 18.369 34.8033 18.3662C34.2351 18.3662 33.6727 18.2582 33.1443 18.048C32.6159 17.8349 32.1386 17.5168 31.7409 17.1077C31.3177 16.6702 30.9881 16.1532 30.7694 15.5879C30.5223 14.9345 30.4001 14.2385 30.4115 13.5397V13.5425ZM32.6358 13.5425C32.6358 14.4686 32.8261 15.2101 33.2096 15.7697C33.3801 16.0339 33.6158 16.2498 33.8971 16.3947C34.1755 16.5395 34.488 16.6134 34.8033 16.602C35.1186 16.6106 35.4339 16.5395 35.7123 16.3918C35.9936 16.2469 36.2322 16.0311 36.4026 15.7669C36.7918 15.2101 36.9878 14.4686 36.9878 13.5397C36.9878 12.6108 36.7918 11.8637 36.4026 11.2955C36.2293 11.0313 35.9907 10.8154 35.7123 10.6705C35.4311 10.5257 35.1186 10.4518 34.8033 10.4603C34.488 10.4518 34.1755 10.5228 33.8971 10.6705C33.6187 10.8183 33.3801 11.0313 33.2096 11.2955C32.8261 11.8523 32.6358 12.5994 32.6358 13.5397V13.5425Z" fill="#6B6C7E" />
	<path d="M40.9819 8.92062H42.7716L42.9222 10.1734H42.9989C43.3767 9.77285 43.8057 9.4206 44.2715 9.13084C44.7374 8.84108 45.2772 8.69052 45.8254 8.69904C46.3993 8.67064 46.9703 8.8212 47.4532 9.13084C47.8793 9.43764 48.206 9.86092 48.3935 10.3495C48.8026 9.90069 49.2628 9.50298 49.7684 9.16493C50.2428 8.85244 50.8025 8.69052 51.3706 8.6962C52.3478 8.6962 53.0694 9.01153 53.5381 9.64502C54.0068 10.2785 54.2369 11.1819 54.2341 12.3579V18.1417H52.041V12.6392C52.041 11.875 51.9246 11.3381 51.6916 11.0228C51.5666 10.8637 51.4047 10.7387 51.2201 10.6563C51.0354 10.5739 50.8309 10.5399 50.6292 10.5541C50.0525 10.5541 49.4048 10.9347 48.6889 11.6989V18.1417H46.5214V12.6392C46.5214 11.875 46.405 11.3381 46.172 11.0228C46.0442 10.8609 45.8794 10.7359 45.6891 10.6535C45.5016 10.5711 45.2942 10.537 45.0897 10.5541C44.513 10.5541 43.8653 10.9347 43.1494 11.6989V18.1417H40.9819V8.92062Z" fill="#6B6C7E" />
	<path d="M56.4897 8.92062H58.2794L58.4299 10.1734H58.5066C58.8844 9.77285 59.3105 9.42344 59.7764 9.13084C60.2423 8.84108 60.7821 8.69052 61.3332 8.69904C61.907 8.67064 62.478 8.8212 62.9609 9.13084C63.3814 9.44048 63.7024 9.86376 63.887 10.3495C64.2961 9.90069 64.7563 9.50298 65.2619 9.16493C65.7364 8.85244 66.296 8.69052 66.8641 8.6962C67.8414 8.6962 68.5629 9.01153 69.0316 9.64502C69.5004 10.2785 69.7305 11.1819 69.7276 12.3579V18.1417H67.5488V12.6392C67.5488 11.875 67.4323 11.3381 67.1993 11.0228C67.0743 10.8637 66.9124 10.7387 66.7278 10.6563C66.5431 10.5739 66.3386 10.5399 66.1369 10.5541C65.5602 10.5541 64.9125 10.9347 64.1967 11.6989V18.1417H62.0292V12.6392C62.0292 11.875 61.9127 11.3381 61.6797 11.0228C61.5519 10.8609 61.3871 10.7359 61.1968 10.6535C61.0093 10.5711 60.802 10.537 60.5974 10.5541C60.0207 10.5541 59.373 10.9347 58.6572 11.6989V18.1417H56.4897V8.92062Z" fill="#6B6C7E" />
	<path d="M71.398 13.5397C71.3866 12.8437 71.5088 12.1534 71.7559 11.5057C71.9718 10.9432 72.2928 10.4262 72.7076 9.98307C73.0939 9.57684 73.5598 9.25015 74.074 9.02573C74.5711 8.80415 75.1109 8.68768 75.6563 8.68768C76.2244 8.67632 76.7898 8.78427 77.3153 9.00585C77.7784 9.20754 78.1874 9.51718 78.5113 9.90637C78.8436 10.3154 79.0908 10.787 79.2385 11.2927C79.4061 11.8665 79.4885 12.4602 79.4828 13.0568C79.4913 13.3977 79.4601 13.7386 79.3891 14.0709H73.5087C73.6081 14.9061 73.9007 15.551 74.3836 16.0055C74.8893 16.4657 75.5569 16.7072 76.2415 16.6816C76.6222 16.6844 77 16.6248 77.3608 16.5055C77.7215 16.3776 78.0653 16.2129 78.3891 16.0055L79.1249 17.3577C78.6675 17.656 78.1761 17.8946 77.659 18.0707C77.1136 18.2582 76.5398 18.3548 75.9631 18.352C75.3523 18.3576 74.7444 18.244 74.1734 18.0253C73.6308 17.8122 73.1365 17.4884 72.7218 17.0765C72.2957 16.6475 71.9633 16.1305 71.7502 15.5652C71.5088 14.9146 71.3895 14.2272 71.398 13.534V13.5397ZM77.5965 12.7045C77.5965 11.9659 77.4431 11.3892 77.1335 10.9773C76.8239 10.5654 76.3523 10.3552 75.7131 10.3524C75.4432 10.3524 75.1762 10.4035 74.9291 10.5029C74.6791 10.6052 74.4547 10.7558 74.2643 10.9432C73.8467 11.3381 73.5882 11.9233 73.4916 12.6988L77.5994 12.7045H77.5965Z" fill="#6B6C7E" />
	<path d="M81.1759 8.92062H82.9656L83.1161 10.5541H83.1928C83.4741 10.0058 83.8803 9.53423 84.3803 9.17345C84.7382 8.92062 85.153 8.76154 85.5876 8.71041C86.0222 8.65927 86.4626 8.71893 86.8688 8.88085L86.491 10.7586C86.3432 10.7131 86.1927 10.6734 86.0393 10.645C85.8717 10.6166 85.7012 10.6052 85.5308 10.608C85.1132 10.6251 84.7126 10.77 84.3803 11.0256C83.9769 11.304 83.6332 11.7955 83.3434 12.5V18.1332H81.1759V8.92062Z" fill="#6B6C7E" />
	<path d="M87.0364 13.5397C87.0222 12.838 87.1529 12.142 87.4142 11.4915C87.6443 10.9205 87.9909 10.4035 88.4312 9.96886C88.8545 9.55695 89.3573 9.23595 89.9084 9.02289C90.4709 8.80415 91.0674 8.69052 91.6725 8.69336C92.2122 8.67916 92.7492 8.78427 93.2463 9.00016C93.6667 9.1905 94.0502 9.44616 94.3883 9.75865L93.34 11.1307C93.1099 10.9347 92.8571 10.7671 92.5872 10.6336C92.3344 10.5143 92.056 10.4518 91.7776 10.4546C91.4282 10.4433 91.0816 10.5143 90.7663 10.6592C90.4481 10.804 90.1697 11.0199 89.951 11.2898C89.4851 11.8466 89.255 12.5937 89.255 13.534C89.255 14.4743 89.4851 15.2158 89.9425 15.7612C90.1527 16.0282 90.4254 16.2441 90.7351 16.389C91.0447 16.5339 91.3828 16.6049 91.7265 16.5964C92.0901 16.5992 92.448 16.5197 92.7747 16.3634C93.0815 16.2129 93.3713 16.0282 93.6326 15.8095L94.536 17.1816C94.1099 17.5622 93.6184 17.8605 93.0844 18.065C92.5787 18.261 92.0418 18.3633 91.5021 18.3662C90.8998 18.3718 90.3004 18.2639 89.738 18.048C89.201 17.8406 88.7153 17.5225 88.3176 17.1077C87.9 16.6731 87.579 16.1532 87.3744 15.5879C87.1415 14.9317 87.0307 14.2414 87.0449 13.5482L87.0364 13.5397Z" fill="#6B6C7E" />
	<path d="M94.9138 13.5425C94.9025 12.8466 95.0246 12.1563 95.2718 11.5086C95.4848 10.9432 95.8087 10.4262 96.2234 9.98591C96.6126 9.57968 97.0813 9.25583 97.5983 9.03425C98.0955 8.81267 98.6352 8.6962 99.1806 8.6962C99.7488 8.68484 100.314 8.79279 100.84 9.01437C101.303 9.21606 101.712 9.52571 102.036 9.91489C102.365 10.324 102.609 10.7927 102.754 11.2955C102.922 11.8693 103.004 12.4631 102.999 13.0596C103.007 13.4005 102.976 13.7414 102.905 14.0738H97.0245C97.1239 14.909 97.4165 15.5538 97.8995 16.0083C98.4051 16.4685 99.0727 16.71 99.7573 16.6844C100.138 16.6873 100.516 16.6276 100.877 16.5083C101.237 16.3805 101.581 16.2157 101.905 16.0083L102.641 17.3605C102.183 17.656 101.692 17.8974 101.175 18.0736C100.629 18.2611 100.056 18.3576 99.4789 18.3548C98.8682 18.3605 98.2602 18.2468 97.6893 18.0281C97.1438 17.8151 96.6495 17.4912 96.2376 17.0793C95.8115 16.6503 95.4791 16.1333 95.2661 15.568C95.0246 14.9175 94.9053 14.23 94.9138 13.5369V13.5425ZM101.112 12.7074C101.112 11.9688 100.959 11.3921 100.649 10.9802C100.34 10.5683 99.8681 10.358 99.2289 10.3552C98.9591 10.3552 98.692 10.4035 98.4449 10.5058C98.1949 10.608 97.9705 10.7586 97.7802 10.9461C97.3626 11.341 97.1069 11.9261 97.0075 12.7017L101.115 12.7074H101.112Z" fill="#6B6C7E" />
	<path d="M7.5064 9.88364L8.59725 10.8183C8.98928 11.1762 9.04041 11.7926 8.68247 12.1847L6.52918 14.6874L5.44969 13.7584C5.04062 13.4176 4.98948 12.8011 5.34742 12.392L7.50356 9.88364H7.5064Z" fill="#6B6C7E" />
	<path d="M7.24221 9.65638L5.37014 8.05135C4.96107 7.71046 4.34463 7.74455 4.00374 8.15362L0.208478 12.5625C-0.0159423 12.8324 -0.0244646 13.1931 0.0238284 13.5056L0.464147 16.2356C0.51528 16.5935 0.873216 16.9032 1.23399 16.9032L4.12305 16.9373C4.17134 16.9373 4.21395 16.9344 4.25372 16.9259C4.49519 16.906 4.72529 16.7952 4.8929 16.5935L6.30476 14.9516L5.22811 14.0255C4.66848 13.5567 4.6003 12.7159 5.08607 12.1591L7.24221 9.65354V9.65638Z" fill="#6B6C7E" />
	<path d="M8.66827 16.5282L5.45537 13.7584C5.0463 13.4176 4.99516 12.8011 5.3531 12.392L9.14836 7.98317C9.36994 7.71898 9.66254 7.64796 10.0262 7.65932L12.8243 7.67637C13.1822 7.67637 13.543 7.98317 13.5942 8.34395L14.0544 11.1989C14.06 11.2415 14.0629 11.2813 14.0629 11.3182C14.0771 11.5625 14.0004 11.8154 13.8328 12.0199L10.0375 16.4288C9.69663 16.8378 9.08018 16.8719 8.67111 16.531L8.66827 16.5282Z" fill="#6B6C7E" />
</svg>